<?xml version="1.0" standalone="no"?><!DOCTYPE svg PUBLIC "-//W3C//DTD SVG 1.1//EN" "http://www.w3.org/Graphics/SVG/1.1/DTD/svg11.dtd"><svg t="1592552129038" class="icon" viewBox="0 0 1024 1024" version="1.1" xmlns="http://www.w3.org/2000/svg" p-id="15212" xmlns:xlink="http://www.w3.org/1999/xlink" width="32" height="32"><defs><style type="text/css"></style></defs><path d="M90.7264 713.417697c0.806788-5.461333 1.086061-8.378182 1.675636-11.170909 6.019879-28.858182 7.943758-59.392 18.835394-86.264243 35.80897-88.281212 90.298182-165.546667 150.372849-238.933333l35.591757-43.504485c-29.882182 19.052606-57.995636 40.029091-80.678788 67.056485-22.403879 26.748121-45.08703 53.496242-65.380848 81.85794-20.355879 28.454788-37.91903 58.957576-56.754424 88.529454-0.589576-3.258182-1.489455-7.540364-2.110061-11.853576-8.440242-56.133818-6.268121-111.709091 7.230061-167.067151 41.890909-171.969939 197.259636-297.580606 374.752969-302.483394 15.887515-0.403394 32.116364 0.806788 47.538425-2.172121 29.789091-5.740606 59.050667-13.963636 88.622545-21.038546 8.626424-2.01697 17.43903-3.351273 28.578909-5.430303C479.536097 5.399273 270.081552 46.452364 138.82337 207.654788 4.772461 372.301576 15.695127 584.145455 90.7264 713.448727m85.550545 48.034909c-3.320242 17.066667-6.826667 32.054303-8.936727 47.259152-0.682667 4.809697 0.744727 11.698424 3.971879 14.925576 60.291879 59.919515 131.816727 100.848485 214.481455 120.707878 74.689939 17.997576 149.752242 17.873455 224.380121-1.644606 97.621333-25.537939 178.331152-77.575758 242.191515-155.368727a453.383758 453.383758 0 0 0 85.98497-163.80897c12.443152-42.97697 18.121697-86.760727 17.935515-131.165091a442.864485 442.864485 0 0 0-21.100606-132.623515c-32.73697-102.865455-94.270061-183.947636-183.327031-244.394666-4.840727-3.289212-12.908606-3.816727-19.021575-2.792728-46.700606 7.478303-86.822788 30.782061-127.410425 53.21697-43.132121 23.831273-81.268364 54.551273-119.404606 85.333333-4.251152 3.444364-9.619394 7.012848-14.770424 7.571394-66.218667 6.733576-118.908121 37.143273-157.820121 90.670546-10.643394 14.615273-18.183758 31.464727-27.430788 47.879757h416.73697c-33.667879-80.771879-91.011879-127.193212-179.013819-138.860606 4.158061-3.165091 5.895758-4.530424 7.695516-5.833697 25.072485-18.40097 49.524364-37.763879 75.434666-54.985697 26.220606-17.43903 53.744485-32.830061 80.86497-48.717575 6.237091-3.692606 12.753455-5.368242 20.324848-0.899879 67.677091 40.246303 117.294545 96.380121 149.566061 167.99806 23.738182 52.751515 36.181333 108.233697 40.184243 165.546667 1.582545 22.900364 0.248242 45.955879 0.248242 71.742061H279.328582c3.847758 40.96 17.749333 74.969212 42.294303 103.951515 45.242182 53.403152 105.968485 73.076364 173.397333 73.75903 70.035394 0.744727 131.289212-24.265697 183.854546-70.190545 5.026909-4.344242 8.378182-4.437333 13.870545-1.799758 33.854061 16.135758 67.863273 31.837091 101.810424 47.724606 16.973576 7.974788 33.947152 16.135758 51.820606 24.54497-2.420364 4.158061-4.002909 7.571394-6.144 10.550303-48.934788 67.708121-112.236606 116.301576-192.946424 139.419151-80.771879 23.148606-162.84703 27.151515-245.635879 10.053819-77.79297-16.073697-146.369939-49.276121-202.907151-105.782303-7.13697-7.19903-13.901576-14.832485-22.46594-23.986425M933.881794 131.072c-32.426667-15.670303-66.653091-23.148606-101.779394-26.903273-7.695515-0.806788-15.608242-0.124121-25.848242-0.124121 122.942061 101.810424 188.974545 230.151758 191.643151 387.475394 2.265212 133.213091-43.690667 249.793939-134.516364 348.097939-172.931879 187.329939-485.003636 223.26303-703.953454 26.59297-5.585455 36.305455-4.623515 71.866182 1.427394 110.219636a243.029333 243.029333 0 0 1-40.153212-64.387878 404.076606 404.076606 0 0 1-28.858182-112.733091 54.30303 54.30303 0 0 0-8.285091-22.869334c-41.146182-62.588121-67.739152-130.792727-78.382545-204.8a487.889455 487.889455 0 0 1 1.892848-152.296727C33.010036 266.891636 112.944097 150.993455 244.016097 70.376727 311.600097 28.858182 385.917673 6.578424 465.386279 1.241212 551.5264-4.654545 633.353309 10.860606 711.642764 46.855758c6.671515 3.009939 14.615273 4.406303 22.031515 4.437333 51.013818 0.248242 99.917576 10.488242 146.773333 30.502788 23.427879 10.022788 40.711758 27.213576 53.465212 49.338182" fill="#70B74F" p-id="15213"></path></svg>