<?xml version="1.0" standalone="no"?><!DOCTYPE svg PUBLIC "-//W3C//DTD SVG 1.1//EN" "http://www.w3.org/Graphics/SVG/1.1/DTD/svg11.dtd"><svg t="1592552159058" class="icon" viewBox="0 0 1024 1024" version="1.1" xmlns="http://www.w3.org/2000/svg" p-id="15455" xmlns:xlink="http://www.w3.org/1999/xlink" width="32" height="32"><defs><style type="text/css"></style></defs><path d="M512 26.3c-134.9 0-257 55-345 143.8l0.6 1.4 180 333.6c3.3-88.1 75.8-158.5 164.7-158.5h0.2c33.6 0 64.8 10 90.8 27.3l375.8 9.4-0.2-5c-57.9-203.2-245-352-466.9-352z" fill="#F37434" p-id="15456"></path><path d="M932.7 754.4c67.6-116.8 81.1-250 48.3-370.6l-1.5-0.2-378.9-11.3c74.6 47 99.2 145 54.7 222l-0.1 0.2c-16.8 29.1-41.1 51-69.1 65L389.6 980.1l4.4 2.4c205 51.5 427.5-36 538.7-228.1z" fill="#F9ED36" p-id="15457"></path><path d="M93.4 754.7C161.1 871.4 270 949.3 391 980.9l0.9-1.2 198.2-323.2c-77.9 41.3-175.2 14-219.8-62.9l-0.1-0.2c-16.9-29-23.8-61.1-22-92.2L167.6 171.4l-4.2 2.6C16.7 326.2-18 562.8 93.4 754.7z" fill="#7AC143" p-id="15458"></path><path d="M512 712.4c-110.7 0-200.4-89.7-200.4-200.4S401.3 311.6 512 311.6 712.4 401.3 712.4 512 622.7 712.4 512 712.4z" fill="#FFFFFF" p-id="15459"></path><path d="M512 662.8c-83.3 0-150.8-67.5-150.8-150.8 0-83.3 67.5-150.8 150.8-150.8 83.3 0 150.8 67.5 150.8 150.8 0 83.3-67.5 150.8-150.8 150.8z" fill="#54A3DA" p-id="15460"></path></svg>