<?xml version="1.0" standalone="no"?><!DOCTYPE svg PUBLIC "-//W3C//DTD SVG 1.1//EN" "http://www.w3.org/Graphics/SVG/1.1/DTD/svg11.dtd"><svg t="1592552141877" class="icon" viewBox="0 0 1024 1024" version="1.1" xmlns="http://www.w3.org/2000/svg" p-id="15332" xmlns:xlink="http://www.w3.org/1999/xlink" width="32" height="32"><defs><style type="text/css"></style></defs><path d="M64 236.373333s28.16-78.08 134.4-137.813333c62.933333-34.56 159.573333-52.053333 239.786667-8.533333a190.293333 190.293333 0 0 1 97.706666 232.106666c-54.186667 175.573333-231.04 163.84-302.72 313.386667a236.16 236.16 0 0 0 19.626667 233.173333c64 90.026667 145.28 90.026667 145.28 90.026667s-138.88 14.293333-233.173333-64a282.453333 282.453333 0 0 1-95.573334-165.973333c-30.293333-219.093333 149.333333-285.226667 177.92-391.466667 21.333333-79.146667-30.293333-124.8-70.4-132.266667A123.946667 123.946667 0 0 0 64 236.373333z" fill="#E68013" p-id="15333"></path><path d="M353.706667 781.013333a58.666667 58.666667 0 1 1 58.453333 58.453334 58.24 58.24 0 0 1-58.453333-58.453334z m-72.746667 0a131.2 131.2 0 1 1 131.2 131.2 131.2 131.2 0 0 1-131.2-131.2z" fill="#E68013" p-id="15334"></path><path d="M625.92 956.586667c-81.493333 2.133333-170.666667 2.133333-170.666667 2.133333C664.96 898.133333 632.32 618.666667 434.986667 597.333333a187.093333 187.093333 0 0 0-162.773334 67.413334s31.573333-119.466667 175.786667-120.533334a242.986667 242.986667 0 0 1 213.333333 139.946667 264.746667 264.746667 0 0 1 5.333334 197.333333 207.36 207.36 0 0 1 70.613333 13.013334C785.28 917.333333 789.333333 946.986667 789.333333 946.986667s-61.44 6.4-163.413333 9.6z" fill="#E68013" p-id="15335"></path><path d="M721.28 682.666667s-88.96-197.546667-311.253333-176.853334c0 0 66.133333-48.853333 219.093333-3.2 114.986667 33.493333 119.253333 87.893333 250.666667 99.84 83.413333 7.466667 80.213333 64 80.213333 64a129.493333 129.493333 0 0 0-113.92 6.4c-77.013333 37.546667-124.8 9.813333-124.8 9.813334z m-19.413333-199.68c-106.666667-44.373333-172.586667-35.84-172.586667-35.84a1133.44 1133.44 0 0 0 128-59.52A206.933333 206.933333 0 0 0 718.08 341.333333a228.266667 228.266667 0 0 1 9.813333-73.6 124.8 124.8 0 0 1 28.16-49.92 131.413333 131.413333 0 0 1 23.893334 32.426667 203.093333 203.093333 0 0 1 18.346666 57.6A214.826667 214.826667 0 0 1 917.333333 390.4a229.76 229.76 0 0 1 37.76 147.626667 111.146667 111.146667 0 0 1-56.32 14.08c-88.106667 6.4-102.613333-30.506667-196.906666-69.546667z" fill="#E68013" p-id="15336"></path></svg>